HIERARCHY
ROOT Hips
{
	OFFSET 0.000000 0.000000 0.000000
	CHANNELS 6 Xposition Yposition Zposition Zrotation Yrotation Xrotation 
	JOINT LHipJoint
	{
		OFFSET 0.000000 0.000000 0.000000
		CHANNELS 3 Zrotation Yrotation Xrotation
		JOINT LeftUpLeg
		{
			OFFSET 1.363060 -1.794630 0.839290
			CHANNELS 3 Zrotation Yrotation Xrotation
			JOINT LeftLeg
			{
				OFFSET 2.448110 -6.726130 0.000000
				CHANNELS 3 Zrotation Yrotation Xrotation
				JOINT LeftFoot
				{
					OFFSET 2.562200 -7.039590 0.000000
					CHANNELS 3 Zrotation Yrotation Xrotation
					JOINT LeftToeBase
					{
						OFFSET 0.157640 -0.433110 2.322550
						CHANNELS 3 Zrotation Yrotation Xrotation
						End Site
						{
							OFFSET 0.000000 0.000000 0.000000
						}
					}
				}
			}
		}
	}
	JOINT RHipJoint
	{
		OFFSET 0.000000 0.000000 0.000000
		CHANNELS 3 Zrotation Yrotation Xrotation
		JOINT RightUpLeg
		{
			OFFSET -1.305520 -1.794630 0.839290
			CHANNELS 3 Zrotation Yrotation Xrotation
			JOINT RightLeg
			{
				OFFSET -2.542530 -6.985550 0.000000
				CHANNELS 3 Zrotation Yrotation Xrotation
				JOINT RightFoot
				{
					OFFSET -2.568260 -7.056230 0.000000
					CHANNELS 3 Zrotation Yrotation Xrotation
					JOINT RightToeBase
					{
						OFFSET -0.164730 -0.452590 2.363150
						CHANNELS 3 Zrotation Yrotation Xrotation
						End Site
						{
							OFFSET 0.000000 0.000000 0.000000
						}
					}
				}
			}
		}
	}
	JOINT LowerBack
	{
		OFFSET 0.000000 0.000000 0.000000
		CHANNELS 3 Zrotation Yrotation Xrotation
		JOINT Spine
		{
			OFFSET 0.028270 2.035590 -0.193380
			CHANNELS 3 Zrotation Yrotation Xrotation
			JOINT Spine1
			{
				OFFSET 0.056720 2.048850 -0.042750
				CHANNELS 3 Zrotation Yrotation Xrotation
				JOINT Neck
				{
					OFFSET 0.000000 0.000000 0.000000
					CHANNELS 3 Zrotation Yrotation Xrotation
					JOINT Neck1
					{
						OFFSET -0.054170 1.746240 0.172020
						CHANNELS 3 Zrotation Yrotation Xrotation
						JOINT Head
						{
							OFFSET 0.104070 1.761360 -0.123970
							CHANNELS 3 Zrotation Yrotation Xrotation
							End Site
							{
								OFFSET 0.000000 0.000000 0.000000
							}
						}
					}
				}
				JOINT LeftShoulder
				{
					OFFSET 0.000000 0.000000 0.000000
					CHANNELS 3 Zrotation Yrotation Xrotation
					JOINT LeftArm
					{
						OFFSET 3.362410 1.200890 -0.311210
						CHANNELS 3 Zrotation Yrotation Xrotation
						JOINT LeftForeArm
						{
							OFFSET 4.983000 -0.000000 -0.000000
							CHANNELS 3 Zrotation Yrotation Xrotation
							JOINT LeftHand
							{
								OFFSET 3.483560 -0.000000 -0.000000
								CHANNELS 3 Zrotation Yrotation Xrotation
								JOINT LeftFingerBase
								{
									OFFSET 0.000000 0.000000 0.000000
									CHANNELS 3 Zrotation Yrotation Xrotation
									JOINT LeftHandIndex1
									{
										OFFSET 0.715260 -0.000000 -0.000000
										CHANNELS 3 Zrotation Yrotation Xrotation
										End Site
										{
											OFFSET 0.000000 0.000000 0.000000
										}
									}
								}
								JOINT LThumb
								{
									OFFSET 0.000000 0.000000 0.000000
									CHANNELS 3 Zrotation Yrotation Xrotation
									End Site
									{
										OFFSET 0.000000 0.000000 0.000000
									}
								}
							}
						}
					}
				}
				JOINT RightShoulder
				{
					OFFSET 0.000000 0.000000 0.000000
					CHANNELS 3 Zrotation Yrotation Xrotation
					JOINT RightArm
					{
						OFFSET -3.136600 1.374050 -0.404650
						CHANNELS 3 Zrotation Yrotation Xrotation
						JOINT RightForeArm
						{
							OFFSET -5.241900 -0.000000 -0.000000
							CHANNELS 3 Zrotation Yrotation Xrotation
							JOINT RightHand
							{
								OFFSET -3.444170 -0.000000 -0.000000
								CHANNELS 3 Zrotation Yrotation Xrotation
								JOINT RightFingerBase
								{
									OFFSET 0.000000 0.000000 0.000000
									CHANNELS 3 Zrotation Yrotation Xrotation
									JOINT RightHandIndex1
									{
										OFFSET -0.622530 -0.000000 -0.000000
										CHANNELS 3 Zrotation Yrotation Xrotation
										End Site
										{
											OFFSET 0.000000 0.000000 0.000000
										}
									}
								}
								JOINT RThumb
								{
									OFFSET 0.000000 0.000000 0.000000
									CHANNELS 3 Zrotation Yrotation Xrotation
									End Site
									{
										OFFSET 0.000000 0.000000 0.000000
									}
								}
							}
						}
					}
				}
			}
		}
	}
}
MOTION
Frames: 6
Frame Time: 0.008333
0.445820 17.766642 -0.494103 -4.895537 42.188186 1.301585 -3.694460 3.114076 0.088594 -8.190076 -34.698231 -13.503422 2.032886 9.756521 33.048517 4.833583 -16.529088 8.519826 0.297700 -3.508100 -9.696800 2.257471 -4.028226 3.145562 21.495623 -13.211578 -17.149815 -1.548713 -9.464528 30.979372 4.407295 -17.299304 -16.236803 -0.066300 1.661200 -4.570100 2.388417 1.684833 -0.689529 3.931233 2.102140 -6.396530 6.383490 1.356815 -4.781301 -15.740270 -11.910528 -12.074378 11.070513 -14.052313 9.710372 7.776900 -7.056500 11.680700 -9.333649 -11.079517 4.645539 -85.204199 -34.412534 47.636689 128.366154 -50.503202 -95.393361 0.109817 2.555879 17.080927 -44.637021 37.449670 -28.657200 -7.125000 0.000000 0.000000 -72.574400 50.978700 -19.289900 8.075680 11.140345 3.013616 84.846392 9.733914 31.964626 -137.946853 44.861617 -101.878796 1.111378 -1.485981 35.085545 43.748966 4.714031 5.082900 7.125000 0.000000 0.000000 41.651600 -17.283100 40.393800 
0.462517 17.783658 -0.497187 -4.732524 41.265706 1.475725 -3.702084 3.159761 0.139831 -8.304198 -34.388672 -13.295632 1.946123 9.693171 32.768425 4.770299 -15.900604 8.363391 0.300000 -3.521500 -9.734300 2.289941 -4.001143 3.151853 21.174635 -12.796401 -16.965767 -1.504141 -9.399743 30.734333 4.417069 -17.179072 -15.738422 -0.088400 1.917600 -5.277900 4.113854 1.547580 -0.544881 2.670715 1.944121 -6.500766 4.097801 1.151750 -4.939467 -14.143545 -11.863069 -12.158333 11.228503 -14.315164 10.024403 7.652700 -7.027800 11.860900 -9.380797 -11.055918 4.633773 -82.206857 -34.637493 46.628943 128.606484 -50.007305 -95.666723 0.096039 2.595001 16.983531 -44.491516 37.283126 -28.397400 -7.125000 0.000000 0.000000 -72.232700 50.901800 -18.877200 8.100243 11.232310 2.958993 87.364575 9.461502 32.143865 -138.185635 44.916518 -102.052822 1.079853 -1.463872 35.290201 43.618541 4.570185 4.922600 7.125000 0.000000 0.000000 41.682300 -17.494100 40.135100 
0.481873 17.803014 -0.497825 -4.424689 40.337810 1.857527 -3.733159 3.162369 0.177884 -8.467989 -34.040586 -13.180220 1.850161 9.615282 32.455398 4.687782 -15.257133 8.278293 0.296900 -3.503700 -9.684300 2.301669 -3.986515 3.159993 20.778028 -12.339688 -16.866783 -1.443403 -9.332166 30.442784 4.413579 -17.030667 -15.286255 -0.104200 2.081800 -5.731800 4.158597 1.521358 -0.871709 2.564329 1.875842 -6.488971 3.982893 1.106017 -4.761225 -13.981061 -11.872830 -12.040315 11.135004 -14.381634 10.089432 7.576700 -7.061200 11.853300 -9.369951 -11.064783 4.686096 -81.912286 -35.168914 46.501390 128.761889 -49.864411 -95.797110 0.138376 2.592257 16.746064 -43.754484 37.568030 -27.990200 -7.125000 0.000000 0.000000 -72.179700 51.165400 -19.489900 8.110071 11.234388 2.924680 87.560350 9.234463 31.967865 -138.495951 44.762412 -102.272209 1.079607 -1.468129 35.169135 43.630681 4.409791 4.787500 7.125000 0.000000 0.000000 41.730400 -17.634500 40.022600 
0.493465 17.821838 -0.504631 -4.046512 39.262356 2.235843 -3.771910 3.148795 0.226053 -8.656755 -33.581372 -13.079016 1.739137 9.528466 32.110452 4.572495 -14.511971 8.302817 0.265100 -3.312500 -9.149900 2.301914 -3.970950 3.170501 20.326145 -11.671306 -16.706031 -1.373841 -9.262264 30.127235 4.455182 -17.003555 -14.802495 -0.120300 2.236000 -6.158400 3.627469 1.474911 -1.049031 2.876108 1.787843 -6.456518 4.623378 1.089816 -4.634136 -14.426774 -11.835286 -11.931342 11.004158 -14.256305 10.087209 7.581300 -7.066300 11.804300 -9.352065 -11.095995 4.749710 -82.584967 -35.672056 46.203865 129.177391 -49.734924 -96.073700 0.168715 2.593876 16.884481 -43.359167 37.648763 -27.724400 -7.125000 0.000000 0.000000 -72.052800 51.269300 -19.658600 8.115419 11.214158 2.911018 86.926762 9.204158 31.994311 -138.692114 44.609918 -102.413231 1.100921 -1.479959 34.977205 43.760652 4.413123 4.816700 7.125000 0.000000 0.000000 41.746300 -17.557600 40.177100 
0.497719 17.840768 -0.515266 -3.906245 38.089345 2.413956 -3.799708 3.109451 0.292859 -8.596294 -32.939239 -13.044457 1.616474 9.441083 31.725584 4.499238 -13.915157 8.368034 0.239100 -3.146700 -8.687300 2.296637 -3.946303 3.176645 20.066815 -10.854303 -16.477933 -1.300010 -9.188496 29.825622 4.455619 -16.894952 -14.398495 -0.122900 2.259900 -6.224500 2.811264 1.474046 -1.112503 3.540844 1.772544 -6.379323 5.804453 1.131735 -4.477785 -15.339487 -11.854161 -12.008828 10.851614 -14.128705 10.158371 7.630900 -7.103400 11.874800 -9.330775 -11.160228 4.828924 -83.998428 -36.217135 45.903532 129.833395 -49.584345 -96.506628 0.134080 2.613686 17.727405 -44.097279 36.948071 -27.851700 -7.125000 0.000000 0.000000 -71.570700 50.780300 -18.158400 8.108983 11.185637 2.923035 85.580458 9.495597 32.038627 -138.760767 44.466538 -102.467930 1.128656 -1.494026 34.620752 43.874096 4.403069 4.834300 7.125000 0.000000 0.000000 41.760800 -17.501600 40.296200 
0.504525 17.860975 -0.524519 -3.822087 36.930543 2.576447 -3.828246 3.066961 0.365126 -8.490265 -32.239080 -13.013070 1.473133 9.329681 31.260443 4.440129 -13.390750 8.501782 0.222800 -3.038700 -8.386400 2.290178 -3.919205 3.174418 19.850726 -10.077087 -16.285945 -1.242940 -9.137988 29.604652 4.410175 -16.676650 -14.036248 -0.110900 2.147500 -5.913600 2.011260 1.546243 -1.232266 4.154803 1.852020 -6.308752 6.906546 1.218399 -4.327735 -16.168973 -11.966065 -11.963021 10.673345 -14.158115 10.169369 7.623900 -7.206700 11.904200 -9.309686 -11.209248 4.889173 -85.593476 -36.580126 46.051748 130.172505 -49.608994 -96.712928 0.088075 2.614455 18.053281 -44.707763 36.389098 -27.977500 -7.125000 0.000000 0.000000 -71.214000 50.393200 -16.979700 8.102668 11.151814 2.945256 84.154530 9.875802 31.936095 -138.888456 44.275470 -102.570269 1.137683 -1.505642 34.252422 43.782362 4.233856 4.681100 7.125000 0.000000 0.000000 41.788400 -17.709100 40.033100 
